<svg xmlns="http://www.w3.org/2000/svg" viewBox="0 0 512 512" width="512" height="512">
  <defs>
    <linearGradient id="gold2" x1="0" y1="0" x2="0" y2="1">
      <stop offset="0%" stop-color="#F3D384"/>
      <stop offset="100%" stop-color="#C9A227"/>
    </linearGradient>
  </defs>
  <!-- خلفية ممتدة بالكامل: المنطقة الآمنة هي الدائرة الوسطى بنسبة 80% -->
  <rect width="512" height="512" fill="#0A1633"/>
  <circle cx="256" cy="256" r="150" fill="#0E2350" stroke="#E9C46A" stroke-width="8" opacity=".9"/>
  <g transform="translate(256 256) scale(9) translate(-12 -12)">
    <path fill="url(#gold2)" d="M3 7a3 3 0 0 1 3-3h11a1 1 0 1 1 0 2H6a1 1 0 0 0 0 2h12a3 3 0 0 1 3 3v6a3 3 0 0 1-3 3H6a3 3 0 0 1-3-3V7zm14 6.5a1.5 1.5 0 1 0 0 3 1.5 1.5 0 0 0 0-3z"/>
  </g>
</svg>
